<svg width="24" height="24" viewBox="0 0 50 50" xmlns="http://www.w3.org/2000/svg">
  <path d="M16 3C8.832 3 3 8.832 3 16V34C3 41.168 8.832 47 16 47H34C41.168 47 47 41.168 47 34V16C47 8.832 41.168 3 34 3H16zM16 5H34C40.086 5 45 9.914 45 16V34C45 40.086 40.086 45 34 45H16C9.914 45 5 40.086 5 34V16C5 9.914 9.914 5 16 5zM37 11A2 2 0 0035 13 2 2 0 0037 15 2 2 0 0039 13 2 2 0 0037 11zM25 14C18.937 14 14 18.937 14 25C14 31.063 18.937 36 25 36C31.063 36 36 31.063 36 25C36 18.937 31.063 14 25 14zM25 16C29.982 16 34 20.018 34 25C34 29.982 29.982 34 25 34C20.018 34 16 29.982 16 25C16 20.018 20.018 16 25 16z"/>
</svg>