<svg xmlns="http://www.w3.org/2000/svg" width="34" height="47" fill="none" viewBox="0 0 34 47">
  <mask id="a" width="34" height="47" x="0" y="0" maskUnits="userSpaceOnUse" style="mask-type:luminance">
    <path fill="#fff" d="M18.234 4.06V0c1.993.313 4.066 1.16 6.22 2.54.38.253.746.38 1.1.38.346 0 .68-.197 1-.59.313-.393.663-.843 1.05-1.35h2.85v15.39h-2.41c-.594-.633-1.227-1.697-1.9-3.19-.68-1.487-1.237-2.67-1.67-3.55-.434-.88-.937-1.7-1.51-2.46-1.287-1.693-2.864-2.73-4.73-3.11ZM6.084 44.14c-.787 0-1.444.637-1.97 1.91H.904v-16.6h2.13c.78.487 1.516 1.53 2.21 3.13a91.071 91.071 0 0 0 1.77 3.9c.5 1.007 1.11 1.943 1.83 2.81 1.673 1.987 3.863 3.107 6.57 3.36v4.06c-1.967-.127-3.67-.47-5.11-1.03-1.44-.56-2.424-.957-2.95-1.19-.534-.233-.957-.35-1.27-.35Zm12.15 2.57v-4.06c2.053-.233 3.666-.913 4.84-2.04 1.173-1.133 1.76-2.537 1.76-4.21s-.344-2.997-1.03-3.97c-.687-.973-1.59-1.83-2.71-2.57-1.12-.74-2.4-1.407-3.84-2s-2.91-1.197-4.41-1.81a67.605 67.605 0 0 1-4.41-1.98 17.716 17.716 0 0 1-3.84-2.52c-2.5-2.16-3.75-4.9-3.75-8.22 0-3.407 1.25-6.403 3.75-8.99C7.38 1.487 10.987.04 15.414 0v4.06c-1.714.167-3.094.717-4.14 1.65-1.054.933-1.58 2.077-1.58 3.43 0 1.353.346 2.473 1.04 3.36.686.887 1.59 1.677 2.71 2.37 1.12.687 2.4 1.31 3.84 1.87s2.906 1.14 4.4 1.74a60.38 60.38 0 0 1 4.39 2 17.57 17.57 0 0 1 3.84 2.62c2.5 2.267 3.75 5.113 3.75 8.54 0 4.02-1.27 7.393-3.81 10.12-2.814 3.073-6.687 4.723-11.62 4.95Z"/>
  </mask>
  <g mask="url(#a)">
    <path fill="#fff" d="M39-2H-7v55h46V-2Z"/>
  </g>
</svg>
