<svg xmlns="http://www.w3.org/2000/svg" width="23" height="52" fill="none" viewBox="0 0 23 52">
  <mask id="a" width="23" height="52" x="0" y="0" maskUnits="userSpaceOnUse" style="mask-type:luminance">
    <path fill="#fff" d="M22.48 4.95c0 .973-.306 1.82-.92 2.54a7.786 7.786 0 0 1-2.19 1.78c-.76.46-1.543.957-2.35 1.49-.8.527-1.54 1.117-2.22 1.77a8.64 8.64 0 0 0-1.65 2.19c-.42.807-.63 1.717-.63 2.73 0 .893.21 1.7.63 2.42.42.72.94 1.427 1.56 2.12.614.7 1.29 1.42 2.03 2.16.74.74 1.417 1.567 2.03 2.48.614.907 1.13 1.933 1.55 3.08.427 1.14.64 2.47.64 3.99 0 1.06-.223 2.257-.67 3.59a23.465 23.465 0 0 1-1.81 4.03 27.58 27.58 0 0 1-2.7 3.94 26.106 26.106 0 0 1-3.3 3.39c-1.16.993-2.376 1.8-3.65 2.42-1.266.613-2.493.92-3.68.92-1.313 0-2.476-.36-3.49-1.08-1.013-.72-1.52-1.8-1.52-3.24a5.4 5.4 0 0 1 .7-2.7c.46-.827 1.03-1.62 1.71-2.38.68-.76 1.43-1.5 2.25-2.22.827-.72 1.58-1.44 2.26-2.16.674-.72 1.244-1.47 1.71-2.25a4.84 4.84 0 0 0 .7-2.51c0-1.227-.433-2.487-1.3-3.78a79.483 79.483 0 0 0-2.89-4 44.255 44.255 0 0 1-2.89-4.22c-.866-1.433-1.3-2.893-1.3-4.38 0-1.82.487-3.733 1.46-5.74a23.025 23.025 0 0 1 3.74-5.52 21.462 21.462 0 0 1 5.15-4.16C13.34.55 15.225 0 17.09 0c1.48 0 2.747.443 3.8 1.33 1.06.887 1.59 2.093 1.59 3.62Z"/>
  </mask>
  <g mask="url(#a)">
    <path fill="#fff" d="M35.5 0h-46v55h46V0Z"/>
  </g>
</svg>
