<svg xmlns="http://www.w3.org/2000/svg" width="39" height="46" fill="none" viewBox="0 0 39 46">
  <mask id="a" width="39" height="46" x="0" y="0" maskUnits="userSpaceOnUse" style="mask-type:luminance">
    <path fill="#fff" d="M10.82 43.35c0-.213.333-.487 1-.82.667-.34 1.497-.743 2.49-1.21a89.3 89.3 0 0 0 3.22-1.6 25.73 25.73 0 0 0 3.22-2c1-.733 1.833-1.533 2.5-2.4.66-.867.99-1.807.99-2.82a16.8 16.8 0 0 0-2.2.14c-.707.093-1.41.193-2.11.3-.7.107-1.41.207-2.13.3s-1.46.14-2.22.14c-.78 0-1.71-.04-2.79-.12a33.8 33.8 0 0 1-3.37-.45c-1.16-.207-2.3-.487-3.42-.84-1.127-.347-2.133-.797-3.02-1.35-.887-.547-1.607-1.197-2.16-1.95-.547-.753-.82-1.637-.82-2.65 0-1.033.23-2.197.69-3.49.467-1.293 1.113-2.647 1.94-4.06.827-1.42 1.79-2.86 2.89-4.32 1.1-1.46 2.29-2.873 3.57-4.24a58.412 58.412 0 0 1 3.98-3.85 38.807 38.807 0 0 1 4.11-3.16c1.367-.9 2.69-1.61 3.97-2.13C22.43.257 23.61 0 24.69 0c.447 0 1.04.047 1.78.14a25.788 25.788 0 0 1 5.04 1.2c.893.313 1.703.68 2.43 1.1.733.42 1.327.897 1.78 1.43.453.527.68 1.12.68 1.78 0 .313-.08.813-.24 1.5-.16.687-.377 1.477-.65 2.37-.273.887-.597 1.85-.97 2.89a44.489 44.489 0 0 1-1.23 3.09 58.568 58.568 0 0 1-1.43 2.97c-.5.953-1.01 1.8-1.53 2.54-.513.74-1.03 1.327-1.55 1.76-.52.433-1.023.65-1.51.65-.36 0-.823-.047-1.39-.14-.573-.1-1.177-.24-1.81-.42-.64-.18-1.287-.397-1.94-.65a11.376 11.376 0 0 1-1.76-.85c-.52-.32-.943-.67-1.27-1.05-.327-.38-.49-.793-.49-1.24v-.41l2.6-5.65v-1.3c-.653.36-1.373.883-2.16 1.57-.78.687-1.573 1.48-2.38 2.38-.8.9-1.577 1.873-2.33 2.92a32.35 32.35 0 0 0-2.02 3.17 19.46 19.46 0 0 0-1.41 3.14c-.347 1.027-.52 1.977-.52 2.85 0 .227.083.357.25.39.167.033.367.05.6.05 1.08 0 2.16-.11 3.24-.33a84.48 84.48 0 0 0 3.25-.75 87.912 87.912 0 0 1 3.26-.75c1.08-.22 2.157-.33 3.23-.33.513 0 1.207.037 2.08.11.88.073 1.84.2 2.88.38a33.7 33.7 0 0 1 3.12.7c1.047.287 2.003.637 2.87 1.05.873.413 1.58.9 2.12 1.46.533.56.8 1.2.8 1.92 0 1.013-.293 2.06-.88 3.14-.593 1.08-1.383 2.133-2.37 3.16a25.35 25.35 0 0 1-3.35 2.92 29.443 29.443 0 0 1-3.84 2.41 24.602 24.602 0 0 1-3.87 1.64c-1.267.4-2.41.6-3.43.6-.147 0-.483-.007-1.01-.02a54.716 54.716 0 0 1-1.86-.06 31.754 31.754 0 0 1-2.24-.19c-.78-.093-1.5-.22-2.16-.38-.653-.16-1.197-.36-1.63-.6-.433-.247-.65-.55-.65-.91Z"/>
  </mask>
  <g mask="url(#a)">
    <path fill="#fff" d="M45 0H-2v55h47V0Z"/>
  </g>
</svg>
