<svg xmlns="http://www.w3.org/2000/svg" width="36" height="48" fill="none" viewBox="0 0 36 48">
  <mask id="a" width="37" height="48" x="0" y="0" maskUnits="userSpaceOnUse" style="mask-type:luminance">
    <path fill="#fff" d="M32.568 34.32c0 3.68-1.757 6.843-5.27 9.49-3.507 2.647-7.513 3.97-12.02 3.97-4.514 0-8.144-1.117-10.89-3.35-2.754-2.233-4.13-4.543-4.13-6.93 0-2.38.673-3.57 2.02-3.57 1.04 0 2.123.52 3.25 1.56a43.275 43.275 0 0 0 3.8 3.12c1.407 1.04 2.997 1.56 4.77 1.56 1.78 0 3.796-.737 6.05-2.21 2.253-1.473 3.38-2.71 3.38-3.71 0-.993-1.223-2.66-3.67-5a312.274 312.274 0 0 1-7.35-7.25c-2.447-2.493-3.67-4.42-3.67-5.78 0-1.367.25-2.853.75-4.46.5-1.6 1.117-2.703 1.85-3.31 2.34-2.3 5.363-4.283 9.07-5.95C24.215.833 27.474 0 30.288 0c1.646 0 3.013.703 4.1 2.11 1.08 1.407 1.62 2.87 1.62 4.39 0 .607-.487 1.093-1.46 1.46-.98.367-2.39.747-4.23 1.14a36.06 36.06 0 0 0-5.62 1.69c-4.42 1.647-6.63 3.033-6.63 4.16 0 .52.756 1.463 2.27 2.83 1.52 1.36 3.18 2.79 4.98 4.29 1.8 1.493 3.456 3.377 4.97 5.65 1.52 2.28 2.28 4.48 2.28 6.6Z"/>
  </mask>
  <g mask="url(#a)">
    <path fill="#fff" d="M39 0H-8v55h47V0Z"/>
  </g>
</svg>
