<svg xmlns="http://www.w3.org/2000/svg" width="46" height="55" fill="none" viewBox="0 0 46 55">
  <mask id="a" width="47" height="56" x="0" y="0" maskUnits="userSpaceOnUse" style="mask-type:luminance">
    <path fill="#fff" d="M23.53 55.19H2.99c-1.04 0-1.8-.24-2.28-.72C.237 53.997 0 53.24 0 52.2v-7.61c0-.567.073-1.043.22-1.43.153-.393.383-.72.69-.98l6.5-5.45c-2.3-.7-4.11-1.883-5.43-3.55C.66 31.513 0 29.12 0 26v-6.83c0-1.947.323-3.68.97-5.2a10.395 10.395 0 0 1 2.8-3.83l8.44-7.09c1.173-.953 2.627-1.7 4.36-2.24C18.303.27 20.277 0 22.49 0h18.2c1.04 0 1.797.24 2.27.72.48.473.72 1.23.72 2.27v7.73c0 .567-.077 1.043-.23 1.43-.153.393-.383.72-.69.98L36.92 18c2.727.607 4.923 1.747 6.59 3.42 1.667 1.667 2.5 4.253 2.5 7.76v6.83c0 1.947-.323 3.68-.97 5.2a9.978 9.978 0 0 1-2.86 3.83l-8.39 7.03c-1.213.993-2.683 1.76-4.41 2.3-1.733.547-3.683.82-5.85.82Zm-12.16-7.74h20.54c4.16 0 7.443-.987 9.85-2.96 2.407-1.973 3.61-4.8 3.61-8.48v-6.83c0-3.64-.933-6.24-2.8-7.8-1.86-1.56-4.31-2.553-7.35-2.98l-9.68-1.31c-.56-.04-.993-.257-1.3-.65-.3-.387-.45-.863-.45-1.43 0-.56.15-1.023.45-1.39.307-.367.74-.55 1.3-.55h15.15c.82 0 1.413-.187 1.78-.56.373-.367.56-.963.56-1.79V2.99c0-.827-.187-1.423-.56-1.79-.367-.367-.96-.55-1.78-.55h-18.2c-4.207 0-7.5.987-9.88 2.96-2.387 1.973-3.58 4.8-3.58 8.48v6.82c0 3.647.92 6.25 2.76 7.81 1.847 1.56 4.287 2.553 7.32 2.98l9.75 1.37c.56.04.98.237 1.26.59.28.34.42.88.42 1.62 0 .52-.14.963-.42 1.33-.28.367-.7.55-1.26.55H11.37c-.827 0-1.423.187-1.79.56-.367.367-.55.96-.55 1.78v7.61c0 .827.183 1.423.55 1.79.367.367.963.55 1.79.55ZM22.75 6.5h14.43v.65H22.75c-1.82 0-3.273.5-4.36 1.5-1.08.993-1.62 2.247-1.62 3.76v5.33c0 1.52.303 2.583.91 3.19.607.607 1.407.997 2.4 1.17l13.71 2.8c1.307.26 2.38.82 3.22 1.68.847.867 1.27 2.427 1.27 4.68v3.77c0 1.913-.65 3.487-1.95 4.72-1.3 1.233-3.053 1.85-5.26 1.85H14.88v-.65h16.19c1.987 0 3.577-.553 4.77-1.66 1.193-1.1 1.79-2.52 1.79-4.26v-3.77c0-2.033-.357-3.43-1.07-4.19-.713-.76-1.677-1.27-2.89-1.53l-13.72-2.79c-1.127-.22-2.047-.663-2.76-1.33-.713-.673-1.07-1.9-1.07-3.68v-5.33c0-1.727.607-3.143 1.82-4.25 1.213-1.107 2.817-1.66 4.81-1.66Z"/>
  </mask>
  <g mask="url(#a)">
    <path fill="#fff" d="M47 0H0v55h47V0Z"/>
  </g>
</svg>
