<svg xmlns="http://www.w3.org/2000/svg" width="40" height="54" fill="none" viewBox="0 0 40 54">
  <mask id="a" width="41" height="54" x="0" y="0" maskUnits="userSpaceOnUse" style="mask-type:luminance">
    <path fill="#fff" d="m35.99 29.64 4.61-.06v2.66c-.52-.08-1.127-.12-1.82-.12-.687 0-1.463.04-2.33.12 0 3.34-1.603 6.723-4.81 10.15-3.207 3.42-7.077 6.203-11.61 8.35-4.527 2.14-8.74 3.21-12.64 3.21-2.033 0-3.69-.517-4.97-1.55C1.14 51.36.5 49.993.5 48.3c0-2.513 1.67-5.137 5.01-7.87 3.333-2.727 7.233-4.98 11.7-6.76 4.46-1.773 8.49-2.813 12.09-3.12-.433-.647-1.107-1.207-2.02-1.68-.907-.48-2.77-1.23-5.59-2.25-2.813-1.02-4.807-2.147-5.98-3.38-1.167-1.233-1.75-2.977-1.75-5.23 0-2.253 1.21-4.833 3.63-7.74a33.61 33.61 0 0 1 8.62-7.31C29.523.987 32.437 0 34.95 0c1.127 0 2.06.403 2.8 1.21.733.8 1.1 1.783 1.1 2.95 0 1.913-1.147 4.31-3.44 7.19-2.3 2.88-4.857 5.08-7.67 6.6l-1.56-2.22c1.687-.867 3.17-2.22 4.45-4.06 1.28-1.84 1.92-3.433 1.92-4.78 0-1.34-.717-2.01-2.15-2.01-2.033 0-4.363 1.267-6.99 3.8-2.62 2.533-3.93 4.907-3.93 7.12 0 1.513.39 2.703 1.17 3.57.78.873 2.753 1.947 5.92 3.22 3.16 1.28 5.413 2.407 6.76 3.38 1.34.98 2.227 2.203 2.66 3.67ZM7 46.61c0 2.08 1.69 3.12 5.07 3.12 1.867 0 4.283-.683 7.25-2.05 2.967-1.36 5.587-3.267 7.86-5.72 2.28-2.447 3.42-4.95 3.42-7.51 0-.3-.067-.753-.2-1.36-5.933.56-11.317 2.23-16.15 5.01C9.417 40.867 7 43.703 7 46.61Z"/>
  </mask>
  <g mask="url(#a)">
    <path fill="#fff" d="M39.5 0h-46v55h46V0Z"/>
  </g>
</svg>
