<svg xmlns="http://www.w3.org/2000/svg" width="53" height="55" fill="none" viewBox="0 0 53 55">
  <mask id="a" width="53" height="55" x="0" y="0" maskUnits="userSpaceOnUse" style="mask-type:luminance">
    <path fill="#fff" d="M37.32 20.72c-.767-.273-1.54-.5-2.32-.68-.787-.18-1.57-.387-2.35-.62a30.718 30.718 0 0 1-3.55-1.23 18.443 18.443 0 0 1-3.59-1.96 11.473 11.473 0 0 1-2.76-2.71c-.74-1.04-1.11-2.227-1.11-3.56 0-1.227.296-2.32.89-3.28a9.485 9.485 0 0 1 2.31-2.55 14.089 14.089 0 0 1 3.27-1.89c1.227-.52 2.48-.943 3.76-1.27C33.15.643 34.393.4 35.6.24 36.806.08 37.886 0 38.84 0h.86c.633 0 1.346.037 2.14.11.793.073 1.606.2 2.44.38.84.18 1.66.423 2.46.73a9.472 9.472 0 0 1 2.16 1.14A5.545 5.545 0 0 1 50.42 4c.386.633.58 1.363.58 2.19 0 .74-.16 1.447-.48 2.12a8.49 8.49 0 0 1-1.22 1.89c-.5.587-1.05 1.127-1.65 1.62-.607.5-1.194.94-1.76 1.32-.553.38-1.127.757-1.72 1.13a3.603 3.603 0 0 1-1.93.55c-.427 0-.784-.073-1.07-.22a2.374 2.374 0 0 1-.73-.57 3.4 3.4 0 0 1-.51-.81 19.64 19.64 0 0 1-.39-.97 8.83 8.83 0 0 0-.24-.59 1.498 1.498 0 0 1-.11-.62c0-.253.21-.507.63-.76.426-.253.947-.523 1.56-.81a336.53 336.53 0 0 0 1.95-.92c.687-.327 1.283-.68 1.79-1.06.513-.38.88-.793 1.1-1.24.22-.44.173-.83-.14-1.17a1.954 1.954 0 0 0-1.18-.61c-.467-.06-.974-.09-1.52-.09-1.12 0-2.37.12-3.75.36a38.61 38.61 0 0 0-4.01.94c-1.3.38-2.49.803-3.57 1.27-1.08.467-1.873.92-2.38 1.36a8.347 8.347 0 0 0-.69.72c-.26.307-.39.607-.39.9 0 .427.216.84.65 1.24.433.4.946.76 1.54 1.08.593.32 1.197.597 1.81.83.613.227 1.09.393 1.43.5.76.233 1.526.45 2.3.65.767.207 1.533.42 2.3.64.76.22 1.517.457 2.27.71.746.253 1.48.56 2.2.92a26.602 26.602 0 0 1 3.65 2.13 15.922 15.922 0 0 1 3.06 2.74 13.057 13.057 0 0 1 2.12 3.43c.526 1.26.79 2.653.79 4.18 0 1.86-.417 3.793-1.25 5.8-.84 2.013-2.027 3.977-3.56 5.89-1.533 1.913-3.37 3.727-5.51 5.44-2.133 1.72-4.504 3.223-7.11 4.51-2.6 1.293-5.397 2.313-8.39 3.06-2.994.753-6.1 1.13-9.32 1.13-.334 0-.667-.003-1-.01a51.51 51.51 0 0 1-.99-.05c-2.667-.127-5.034-.72-7.1-1.78-2.06-1.06-3.764-2.41-5.11-4.05A14.84 14.84 0 0 1 .52 43.4a14.212 14.212 0 0 1-.31-6.25c.36-2.127 1.213-4.21 2.56-6.25 1.34-2.047 3.226-3.873 5.66-5.48 1.04-.7 2.253-1.297 3.64-1.79a34.56 34.56 0 0 1 4.31-1.24 41.772 41.772 0 0 1 4.48-.73c1.493-.16 2.863-.24 4.11-.24.933 0 1.943.037 3.03.11 1.093.073 2.173.227 3.24.46 1.067.233 2.067.567 3 1 .926.433 1.71 1 2.35 1.7.233.233.453.513.66.84.213.327.32.67.32 1.03 0 .253-.07.467-.21.64-.134.167-.3.31-.5.43-.207.113-.43.193-.67.24-.247.04-.473.06-.68.06a9.4 9.4 0 0 1-2.95-.49c-1-.333-1.964-.613-2.89-.84a16.15 16.15 0 0 0-4.32-.58c-1.52 0-2.96.257-4.32.77-1.354.507-2.53 1.22-3.53 2.14a10.205 10.205 0 0 0-2.4 3.32c-.593 1.287-.89 2.713-.89 4.28 0 .74.053 1.413.16 2.02.107.6.296 1.143.57 1.63.273.487.64.917 1.1 1.29.453.367 1.04.697 1.76.99.76.3 1.53.503 2.31.61.787.107 1.593.16 2.42.16 1.226 0 2.653-.153 4.28-.46a36.063 36.063 0 0 0 5.03-1.35 40.277 40.277 0 0 0 5.1-2.16c1.666-.847 3.157-1.803 4.47-2.87 1.313-1.073 2.37-2.25 3.17-3.53.806-1.28 1.21-2.637 1.21-4.07 0-1.08-.277-2.053-.83-2.92a8.887 8.887 0 0 0-2.07-2.29 15.322 15.322 0 0 0-2.75-1.7 25.869 25.869 0 0 0-2.82-1.16Z"/>
  </mask>
  <g mask="url(#a)">
    <path fill="#fff" d="M54 0H0v55h54V0Z"/>
  </g>
</svg>
