<svg xmlns="http://www.w3.org/2000/svg" width="40" height="40" fill="none" viewBox="0 0 40 40">
  <mask id="a" width="40" height="40" x="0" y="0" maskUnits="userSpaceOnUse" style="mask-type:luminance">
    <path fill="#fff" d="M27.932 18.105h-2.176c-.517 0-.95.163-1.297.49-.347.335-.52.74-.52 1.218 0 .498.173.913.52 1.247.348.334.78.5 1.297.5h2.176c2.09 0 3.87.718 5.34 2.15 1.492 1.434 2.238 3.16 2.238 5.175 0 2.016-.746 3.74-2.237 5.174-1.47 1.414-3.251 2.121-5.341 2.121H2.584c-.498 0-.93.173-1.298.52-.347.334-.52.74-.52 1.218s.173.893.52 1.247c.368.334.8.5 1.297.5h25.349c3.084 0 5.719-1.06 7.904-3.18 2.206-2.095 3.31-4.628 3.31-7.6 0-2.972-1.104-5.518-3.31-7.639-2.185-2.094-4.82-3.141-7.904-3.141ZM11.979 21.56h2.176c.497 0 .929-.167 1.297-.501.34-.334.51-.75.51-1.247 0-.478-.17-.883-.51-1.217a1.885 1.885 0 0 0-1.297-.491h-2.176c-2.097 0-3.89-.717-5.382-2.15-1.47-1.434-2.206-3.159-2.206-5.175s.735-3.74 2.206-5.174c1.491-1.433 3.285-2.15 5.382-2.15h25.348c.497 0 .92-.167 1.267-.5.367-.335.551-.74.551-1.218S38.961.844 38.594.49A1.779 1.779 0 0 0 37.327 0H11.98C8.89 0 6.253 1.047 4.075 3.142 1.869 5.262.765 7.809.765 10.78c0 2.972 1.104 5.515 3.31 7.63 2.178 2.1 4.813 3.15 7.904 3.15Z"/>
  </mask>
  <g mask="url(#a)">
    <path fill="#fff" d="M39.494 0H-7.484v54h46.978V0Z"/>
  </g>
</svg>
